<svg width="24" height="24" xmlns="http://www.w3.org/2000/svg" xmlns:xlink="http://www.w3.org/1999/xlink" overflow="hidden"><defs><clipPath id="clip0"><rect x="628" y="348" width="24" height="24"/></clipPath></defs><g clip-path="url(#clip0)" transform="translate(-628 -348)"><path d="M647.66 351.99C645.2 350.351 641.9 350.825 640 353.09 638.104 350.818 634.799 350.343 632.34 351.99 630.929 352.973 630.063 354.562 630 356.28 629.86 360.16 633.3 363.27 638.55 368.04L638.65 368.13C639.415 368.82 640.58 368.816 641.34 368.12L641.45 368.02C646.7 363.26 650.13 360.15 650 356.27 649.935 354.555 649.068 352.97 647.66 351.99ZM640.1 366.55 640 366.65 639.9 366.55C635.14 362.24 632 359.39 632 356.5 631.954 354.613 633.447 353.046 635.334 353 635.389 352.999 635.445 352.999 635.5 353 637.053 353.008 638.455 353.934 639.07 355.36L640.94 355.36C641.549 353.933 642.949 353.005 644.5 353 646.387 352.954 647.954 354.447 648 356.334 648.001 356.389 648.001 356.445 648 356.5 648 359.39 644.86 362.24 640.1 366.55Z" fill="#1DFBB8"/></g></svg>