<?xml version="1.0" encoding="UTF-8"?>
<svg xmlns="http://www.w3.org/2000/svg" xmlns:xlink="http://www.w3.org/1999/xlink" width="24px" height="24px" viewBox="0 0 24 24" version="1.1">
<g id="surface1">
<path style=" stroke:none;fill-rule:nonzero;fill:rgb(0%,0%,0%);fill-opacity:1;" d="M 23.8125 6 C 23.699219 5.925781 23.550781 5.886719 23.4375 5.960938 L 15.789062 8.699219 L 10.425781 6.75 C 10.726562 6 10.875 5.324219 10.875 4.761719 C 10.875 3.75 10.5 2.851562 9.789062 2.136719 C 9.074219 1.425781 8.136719 1.050781 7.164062 1.050781 C 5.101562 1.050781 3.449219 2.699219 3.449219 4.761719 C 3.449219 5.476562 3.710938 6.335938 4.164062 7.386719 L 0.261719 8.699219 C 0.113281 8.773438 0 8.925781 0 9.074219 L 0 22.574219 C 0 22.726562 0.0742188 22.835938 0.1875 22.914062 C 0.261719 22.949219 0.335938 22.988281 0.414062 22.988281 C 0.449219 22.988281 0.523438 22.988281 0.5625 22.949219 L 8.210938 20.25 L 15.636719 22.988281 C 15.710938 23.023438 15.824219 23.023438 15.898438 22.988281 L 23.699219 20.210938 C 23.851562 20.136719 23.960938 19.988281 23.960938 19.835938 L 23.960938 6.335938 C 24 6.1875 23.925781 6.074219 23.8125 6 Z M 7.164062 1.800781 C 7.949219 1.800781 8.664062 2.101562 9.1875 2.664062 C 9.75 3.1875 10.050781 3.9375 10.050781 4.6875 C 10.050781 5.210938 9.863281 5.925781 9.488281 6.75 C 8.8125 8.25 7.6875 9.824219 7.164062 10.539062 C 7.085938 10.460938 7.050781 10.386719 6.976562 10.273438 C 6.488281 9.601562 5.699219 8.476562 5.136719 7.3125 C 4.574219 6.226562 4.3125 5.324219 4.3125 4.648438 C 4.273438 3.113281 5.585938 1.800781 7.164062 1.800781 Z M 23.175781 19.539062 L 15.789062 22.164062 L 8.363281 19.425781 C 8.324219 19.425781 8.25 19.386719 8.210938 19.386719 C 8.175781 19.386719 8.101562 19.386719 8.0625 19.425781 L 0.824219 22.011719 L 0.824219 9.375 L 4.574219 8.0625 C 4.574219 8.0625 4.574219 8.0625 4.574219 8.101562 C 4.613281 8.136719 4.613281 8.175781 4.648438 8.210938 C 4.6875 8.289062 4.726562 8.363281 4.761719 8.4375 C 4.800781 8.476562 4.800781 8.511719 4.835938 8.550781 C 4.875 8.625 4.914062 8.699219 4.949219 8.773438 C 4.988281 8.8125 4.988281 8.851562 5.023438 8.886719 C 5.0625 8.960938 5.101562 9.039062 5.136719 9.074219 C 5.175781 9.113281 5.175781 9.148438 5.210938 9.1875 C 5.25 9.261719 5.289062 9.300781 5.324219 9.375 C 5.363281 9.414062 5.363281 9.449219 5.398438 9.488281 C 5.4375 9.5625 5.476562 9.601562 5.511719 9.675781 C 5.550781 9.710938 5.550781 9.75 5.585938 9.789062 C 5.625 9.863281 5.664062 9.898438 5.699219 9.976562 C 5.738281 10.011719 5.738281 10.050781 5.773438 10.085938 C 5.8125 10.164062 5.851562 10.199219 5.886719 10.273438 C 5.925781 10.3125 5.925781 10.351562 5.960938 10.351562 C 6 10.425781 6.039062 10.460938 6.074219 10.5 C 6.074219 10.539062 6.113281 10.539062 6.113281 10.574219 C 6.148438 10.648438 6.1875 10.6875 6.226562 10.726562 C 6.226562 10.726562 6.261719 10.761719 6.261719 10.761719 C 6.300781 10.800781 6.335938 10.875 6.375 10.914062 C 6.375 10.914062 6.414062 10.949219 6.414062 10.949219 C 6.449219 10.988281 6.488281 11.0625 6.523438 11.101562 C 6.5625 11.136719 6.601562 11.175781 6.636719 11.210938 C 6.710938 11.324219 6.789062 11.398438 6.789062 11.4375 C 6.863281 11.550781 6.976562 11.585938 7.125 11.585938 C 7.238281 11.585938 7.351562 11.511719 7.460938 11.4375 C 7.460938 11.4375 7.5 11.398438 7.574219 11.324219 C 7.574219 11.324219 7.613281 11.289062 7.613281 11.289062 C 7.648438 11.25 7.648438 11.25 7.6875 11.210938 C 7.6875 11.210938 7.726562 11.175781 7.726562 11.175781 C 7.761719 11.136719 7.761719 11.101562 7.800781 11.0625 C 7.800781 11.023438 7.835938 11.023438 7.835938 10.988281 C 7.875 10.949219 7.914062 10.914062 7.914062 10.875 C 7.949219 10.835938 7.949219 10.800781 7.988281 10.761719 C 8.023438 10.726562 8.0625 10.6875 8.101562 10.613281 C 8.136719 10.574219 8.136719 10.539062 8.175781 10.5 C 8.210938 10.460938 8.25 10.425781 8.289062 10.351562 C 8.324219 10.3125 8.363281 10.273438 8.363281 10.238281 C 8.398438 10.199219 8.4375 10.125 8.476562 10.085938 C 8.511719 10.050781 8.550781 9.976562 8.585938 9.9375 C 8.625 9.898438 8.664062 9.824219 8.699219 9.789062 C 8.738281 9.75 8.773438 9.675781 8.8125 9.636719 C 8.851562 9.5625 8.886719 9.523438 8.925781 9.449219 C 8.960938 9.414062 9 9.335938 9.039062 9.300781 C 9.074219 9.226562 9.113281 9.1875 9.148438 9.113281 C 9.1875 9.039062 9.226562 9 9.261719 8.925781 C 9.300781 8.851562 9.335938 8.8125 9.375 8.738281 C 9.414062 8.664062 9.449219 8.625 9.488281 8.550781 C 9.523438 8.476562 9.5625 8.4375 9.601562 8.363281 C 9.636719 8.289062 9.675781 8.25 9.710938 8.175781 C 9.75 8.101562 9.789062 8.0625 9.824219 7.988281 C 9.863281 7.914062 9.898438 7.875 9.9375 7.800781 C 9.976562 7.726562 10.011719 7.648438 10.050781 7.613281 C 10.085938 7.539062 10.125 7.5 10.125 7.425781 C 10.125 7.425781 10.125 7.425781 10.125 7.386719 L 15.675781 9.414062 C 15.75 9.449219 15.863281 9.449219 15.9375 9.414062 L 23.175781 6.824219 Z M 23.175781 19.539062 "/>
<path style=" stroke:none;fill-rule:nonzero;fill:rgb(0%,0%,0%);fill-opacity:1;" d="M 19.6875 15.898438 C 19.761719 15.9375 19.875 15.9375 19.949219 15.9375 C 20.175781 15.9375 20.398438 15.863281 20.585938 15.75 C 20.851562 15.5625 21.039062 15.300781 21.113281 15 C 21.1875 14.699219 21.113281 14.363281 20.960938 14.101562 C 20.773438 13.835938 20.511719 13.648438 20.210938 13.574219 C 19.574219 13.425781 18.898438 13.835938 18.75 14.476562 C 18.675781 14.773438 18.75 15.113281 18.898438 15.375 C 19.125 15.636719 19.386719 15.824219 19.6875 15.898438 Z M 19.574219 14.625 C 19.613281 14.398438 19.835938 14.289062 20.023438 14.324219 C 20.136719 14.363281 20.210938 14.398438 20.25 14.511719 C 20.289062 14.585938 20.324219 14.699219 20.289062 14.8125 C 20.25 14.925781 20.210938 15 20.101562 15.039062 C 20.023438 15.074219 19.914062 15.113281 19.800781 15.074219 C 19.6875 15.039062 19.613281 15 19.574219 14.886719 C 19.574219 14.8125 19.574219 14.738281 19.574219 14.625 Z M 4.125 14.664062 L 3.863281 14.8125 L 3.710938 14.550781 C 3.601562 14.363281 3.335938 14.289062 3.148438 14.4375 C 2.960938 14.550781 2.886719 14.8125 3.039062 15 L 3.1875 15.261719 L 2.925781 15.414062 C 2.738281 15.523438 2.664062 15.789062 2.8125 15.976562 C 2.851562 16.125 3 16.164062 3.113281 16.164062 C 3.1875 16.164062 3.261719 16.125 3.335938 16.085938 L 3.601562 15.9375 L 3.75 16.199219 C 3.824219 16.3125 3.976562 16.386719 4.085938 16.386719 C 4.164062 16.386719 4.238281 16.351562 4.3125 16.3125 C 4.5 16.199219 4.574219 15.9375 4.425781 15.75 L 4.273438 15.488281 L 4.539062 15.335938 C 4.726562 15.226562 4.800781 14.960938 4.648438 14.773438 C 4.574219 14.585938 4.3125 14.550781 4.125 14.664062 Z M 7.988281 15.789062 C 7.5 15.789062 6.863281 15.710938 6.449219 15.601562 C 6.226562 15.5625 6 15.710938 5.960938 15.9375 C 5.925781 16.164062 6.074219 16.386719 6.300781 16.425781 C 6.710938 16.5 7.386719 16.613281 7.988281 16.613281 C 8.210938 16.613281 8.398438 16.425781 8.398438 16.199219 C 8.398438 15.976562 8.210938 15.789062 7.988281 15.789062 Z M 11.0625 14.363281 C 10.800781 14.738281 10.5 15.039062 10.125 15.261719 C 10.011719 15.335938 9.863281 15.414062 9.710938 15.488281 C 9.488281 15.5625 9.414062 15.824219 9.488281 16.050781 C 9.5625 16.199219 9.710938 16.3125 9.863281 16.3125 C 9.898438 16.3125 9.976562 16.3125 10.011719 16.273438 C 10.199219 16.199219 10.351562 16.125 10.5 16.011719 C 10.949219 15.710938 11.324219 15.375 11.664062 14.925781 C 11.8125 14.738281 11.773438 14.476562 11.585938 14.363281 C 11.476562 14.136719 11.210938 14.175781 11.0625 14.363281 Z M 14.0625 11.664062 C 13.648438 11.664062 13.425781 11.773438 13.199219 11.851562 C 12.675781 12.074219 12.226562 12.5625 12.113281 12.710938 C 11.960938 12.898438 12 13.164062 12.148438 13.3125 C 12.226562 13.386719 12.335938 13.425781 12.414062 13.425781 C 12.523438 13.425781 12.636719 13.386719 12.710938 13.273438 C 12.898438 13.050781 13.199219 12.789062 13.5 12.636719 C 13.726562 12.5625 13.800781 12.523438 14.0625 12.488281 C 14.289062 12.488281 14.476562 12.300781 14.476562 12.074219 C 14.476562 11.851562 14.289062 11.664062 14.0625 11.664062 Z M 15.601562 12.300781 C 15.523438 12.523438 15.601562 12.75 15.824219 12.863281 C 16.238281 13.050781 16.835938 13.351562 17.289062 13.6875 C 17.363281 13.726562 17.4375 13.761719 17.511719 13.761719 C 17.664062 13.761719 17.773438 13.6875 17.851562 13.574219 C 17.960938 13.386719 17.925781 13.125 17.738281 13.011719 C 17.210938 12.675781 16.613281 12.335938 16.125 12.148438 C 15.9375 12 15.710938 12.113281 15.601562 12.300781 Z M 7.164062 5.699219 C 7.875 5.699219 8.4375 5.136719 8.4375 4.425781 C 8.4375 3.710938 7.875 3.148438 7.164062 3.148438 C 6.449219 3.148438 5.886719 3.710938 5.886719 4.425781 C 5.886719 5.136719 6.488281 5.699219 7.164062 5.699219 Z M 7.164062 3.976562 C 7.386719 3.976562 7.613281 4.164062 7.613281 4.425781 C 7.613281 4.648438 7.425781 4.875 7.164062 4.875 C 6.9375 4.875 6.710938 4.6875 6.710938 4.425781 C 6.75 4.199219 6.9375 3.976562 7.164062 3.976562 Z M 7.164062 3.976562 "/>
</g>
</svg>
