<?xml version="1.0" encoding="UTF-8"?>
<svg xmlns="http://www.w3.org/2000/svg" xmlns:xlink="http://www.w3.org/1999/xlink" width="24px" height="24px" viewBox="0 0 24 24" version="1.1">
<g id="surface1">
<path style=" stroke:none;fill-rule:nonzero;fill:rgb(67.843137%,67.843137%,67.843137%);fill-opacity:1;" d="M 18.644531 14.8125 L 9.03125 14.8125 C 8.703125 14.8125 8.417969 14.585938 8.34375 14.265625 L 6.726562 7.210938 C 6.675781 7.003906 6.726562 6.785156 6.859375 6.617188 C 6.992188 6.449219 7.195312 6.351562 7.410156 6.351562 L 20.265625 6.351562 C 20.480469 6.351562 20.683594 6.449219 20.816406 6.617188 C 20.953125 6.785156 21 7.003906 20.953125 7.210938 L 19.332031 14.265625 C 19.257812 14.585938 18.972656 14.8125 18.644531 14.8125 Z M 9.589844 13.40625 L 18.085938 13.40625 L 19.382812 7.757812 L 8.292969 7.757812 Z M 10.40625 21.09375 C 8.917969 21.09375 7.710938 19.886719 7.710938 18.398438 C 7.710938 16.910156 8.917969 15.703125 10.40625 15.703125 C 11.894531 15.703125 13.101562 16.910156 13.101562 18.398438 C 13.097656 19.886719 11.894531 21.09375 10.40625 21.09375 Z M 10.40625 17.113281 C 9.695312 17.113281 9.117188 17.6875 9.117188 18.398438 C 9.117188 19.113281 9.695312 19.6875 10.40625 19.6875 C 11.117188 19.6875 11.695312 19.109375 11.695312 18.398438 C 11.695312 17.6875 11.117188 17.113281 10.40625 17.113281 Z M 17.269531 21.09375 C 15.78125 21.09375 14.574219 19.886719 14.574219 18.398438 C 14.574219 16.910156 15.78125 15.703125 17.269531 15.703125 C 18.757812 15.703125 19.964844 16.910156 19.964844 18.398438 C 19.960938 19.886719 18.757812 21.09375 17.269531 21.09375 Z M 17.269531 17.113281 C 16.558594 17.113281 15.980469 17.6875 15.980469 18.398438 C 15.980469 19.113281 16.558594 19.6875 17.269531 19.6875 C 17.980469 19.6875 18.558594 19.109375 18.558594 18.398438 C 18.558594 17.6875 17.980469 17.113281 17.269531 17.113281 Z M 17.269531 17.113281 "/>
<path style=" stroke:none;fill-rule:nonzero;fill:rgb(67.843137%,67.843137%,67.843137%);fill-opacity:1;" d="M 7.410156 7.757812 C 7.105469 7.757812 6.839844 7.5625 6.742188 7.277344 L 5.539062 3.65625 L 3.3125 3.65625 C 2.925781 3.65625 2.609375 3.339844 2.609375 2.953125 C 2.609375 2.566406 2.925781 2.25 3.3125 2.25 L 6.046875 2.25 C 6.347656 2.25 6.617188 2.445312 6.714844 2.730469 L 8.078125 6.832031 C 8.152344 7.046875 8.113281 7.28125 7.984375 7.464844 C 7.851562 7.648438 7.636719 7.757812 7.414062 7.757812 Z M 7.410156 7.757812 "/>
</g>
</svg>
